<?xml version="1.0" encoding="iso-8859-1"?>
<!-- Generator: Adobe Illustrator 19.1.0, SVG Export Plug-In . SVG Version: 6.00 Build 0)  -->
<svg version="1.1" id="Capa_1" xmlns="http://www.w3.org/2000/svg" xmlns:xlink="http://www.w3.org/1999/xlink" x="0px" y="0px"
	 viewBox="0 0 159.823 159.823" style="enable-background:new 0 0 159.823 159.823;" xml:space="preserve">
<g id="XMLID_105_">
	<path id="XMLID_1515_" style="fill:rgba(255, 255, 255, .3);" d="M54.559,104.983c-0.409,1.447-1.417,1.803-2.385,2.077
		c-1.095,0.31-1.45,0.942-1.113,1.958c0.515,1.552-0.212,3.312,0.921,4.79c0.368,0.48,0.054,1.239-0.285,1.814
		c-0.315,0.533-0.949,1.062-0.501,1.715c0.573,0.836,1.035,1.847,2.125,2.175c0.529,0.159,1.089,0.244,1.641,0.295
		c0.988,0.091,1.501-0.378,1.496-1.388c-0.002-0.32,0.034-0.64,0.024-0.959c-0.033-1.048,0.423-1.717,1.502-1.755
		c1.418-0.05,2.007-0.742,1.92-2.131c-0.063-1.003,0.135-1.871,1.176-2.403c0.872-0.445,0.674-1.374,0.68-2.151
		c0.02-2.638,0.009-5.276,0.01-7.913c0-7.434-0.017-14.868,0.015-22.302c0.006-1.403-0.102-2.663-1.257-3.678
		c-0.524-0.461-0.775-1.22-1.261-1.74c-2.22-2.369-1.919-5.275-1.816-8.148c0.028-0.794,0.491-1.325,1.054-1.8
		c0.977-0.825,1.908-1.715,2.95-2.448c1.03-0.725,1.393-1.62,1.373-2.849c-0.053-3.276-0.024-6.554-0.016-9.832
		c0.002-0.973-0.19-1.86-0.647-2.754c-1.544-3.02-0.9-5.767,2.057-7.348c1.888-1.01,2.371-2.35,2.377-4.252
		c0.005-1.431,0.211-2.865,0.376-4.292c0.129-1.114-0.118-1.902-1.117-2.65c-2.912-2.18-2.794-4.723,0.329-6.64
		c1.279-0.785,1.732-1.796,1.779-3.138c0.067-1.918,0.176-3.829,0.47-5.729c0.248-1.599-0.127-2.797-1.561-3.919
		C64.425,5.674,64.295,2.727,66.347,0c0.302,1.506-0.215,2.921,0.455,4.204c0.748,1.433,1.786,2.466,3.36,2.833
		c1.419,0.331,2.821,0.014,4.566-0.83c-0.491,1.775-1.536,2.132-2.513,2.525c-2.066,0.833-2.114,0.833-1.99,2.89
		c0.124,2.072,0.331,4.138,0.488,6.208c0.077,1.027,0.448,1.847,1.426,2.321c0.358,0.173,0.704,0.386,1.019,0.628
		c2.188,1.682,2.375,4.266,0.117,5.837c-1.548,1.078-1.827,2.277-1.523,3.868c0.301,1.581,0.337,3.179,0.375,4.775
		c0.028,1.157,0.481,1.969,1.55,2.471c0.573,0.269,1.131,0.612,1.619,1.015c1.953,1.613,2.597,3.984,1.447,6.231
		c-0.73,1.427-0.926,2.847-0.911,4.382c0.028,2.877,0.044,5.756-0.005,8.633c-0.022,1.298,0.263,2.364,1.455,3.047
		c0.206,0.118,0.382,0.288,0.569,0.439c3.599,2.906,3.884,3.62,3.378,8.169c-0.083,0.745-0.357,1.383-0.76,1.988
		c-0.532,0.798-0.946,1.719-1.62,2.37c-1.923,1.855-2.012,4.136-1.993,6.592c0.073,9.192,0.026,18.385,0.034,27.577
		c0.001,1.33-0.252,2.712,1.354,3.519c0.674,0.338,0.512,1.289,0.515,1.999c0.003,1.087,0.292,1.913,1.564,1.952
		c1.43,0.044,1.984,0.812,1.877,2.178c-0.025,0.317-0.005,0.641,0.034,0.957c0.107,0.857,0.526,1.148,1.291,0.625
		c0.327-0.224,0.612-0.513,0.901-0.788c3.441-3.265,7.163-6.133,11.513-8.099c0.891-0.402,1.387-1.011,1.487-1.986
		c0.106-1.039,0.769-1.507,1.762-1.629c0.713-0.087,1.42-0.327,2.129-0.326c1.47,0.002,2.394-0.549,3.267-1.839
		c0.736-1.088,0.826-1.712,0.029-2.674c-0.805-0.971-0.8-2.096-0.046-3.101c0.564-0.752,0.943-1.429,0.47-2.388
		c-0.293-0.595-0.117-1.244,0.132-1.859c0.594-1.472,0.327-2.728-0.726-3.976c-1.465-1.734-1.801-3.709-0.591-5.773
		c0.156-0.266,0.332-0.564,0.931-0.471c0.031,1.813,0.026,3.74,1.681,5.063c1.674,1.339,3.527,1.132,5.691,0.205
		c-0.467,1.743-1.522,2.105-2.527,2.494c-2.049,0.793-1.778,0.743-1.491,2.795c0.251,1.8,0.205,3.574,1.09,5.281
		c0.401,0.773-0.337,1.66-0.982,2.298c-0.57,0.565-0.386,0.957,0.022,1.623c1.179,1.925,2.982,2.43,5.003,2.562
		c1.48,0.096,2.451,0.642,2.43,2.303c-0.013,1.035,0.656,1.526,1.519,1.925c14.791,6.837,21.945,19.08,24.51,34.594
		c0.664,4.015,0.336,7.965-0.532,11.891c-0.442,1.998-0.745,2.195-2.747,2.279c-0.638,0.027-1.279,0.01-1.918,0.01
		c-38.049,0-76.098,0-114.147,0c-0.56,0-1.119,0.008-1.679-0.004c-2.599-0.056-3.011-0.373-2.957-2.888
		c0.297-13.796,8.099-27.603,21.532-33.022c1.298-0.523,2.544-0.934,2.517-2.704c-0.011-0.716,0.627-1.082,1.297-1.218
		c0.547-0.11,1.106-0.179,1.663-0.213c1.447-0.088,2.498-0.745,3.339-1.945c0.444-0.634,0.584-1.068,0.065-1.665
		c-0.978-1.124-1.008-2.294-0.107-3.484c0.048-0.064,0.098-0.126,0.145-0.191c0.833-1.13-0.635-2.36,0.29-3.638
		c0.881-1.218-0.05-2.329-0.883-3.397c-1.514-1.943-1.4-3.523,0.298-5.447c0.355,1.686,0.265,3.403,1.752,4.552
		C51.161,105.719,52.765,105.369,54.559,104.983z"/>
</g>
<g>
</g>
<g>
</g>
<g>
</g>
<g>
</g>
<g>
</g>
<g>
</g>
<g>
</g>
<g>
</g>
<g>
</g>
<g>
</g>
<g>
</g>
<g>
</g>
<g>
</g>
<g>
</g>
<g>
</g>
</svg>
